# Blender v2.77 (sub 0) OBJ File: 'Mushroom.blend'
# www.blender.org
mtllib Mushroom.mtl
o Cylinder.001
v 1.365456 0.382868 -0.653220
v 1.390530 0.608248 -0.632965
v 1.845408 0.391499 -0.461896
v 1.860301 0.616929 -0.447573
v 2.058049 0.413146 0.000000
v 2.068868 0.649086 0.000000
v 1.845323 0.390101 0.461896
v 1.860194 0.614879 0.447574
v 1.363437 0.340484 0.653220
v 1.388098 0.558334 0.632965
v 0.901789 0.346236 0.461896
v 0.939603 0.554762 0.447573
v 0.713569 0.408568 -0.000000
v 0.757483 0.620701 -0.000000
v 0.905733 0.429051 -0.461896
v 0.944050 0.648137 -0.447573
v 1.417043 0.822258 -0.452311
v 1.755948 0.831273 -0.319832
v 1.902856 0.853177 0.000000
v 1.755695 0.825303 0.319832
v 1.414804 0.774867 0.452311
v 1.090265 0.769064 0.319832
v 0.959953 0.812617 -0.000000
v 1.093535 0.837752 -0.319832
v 1.438656 0.999183 -0.226493
v 1.607137 1.000530 -0.160155
v 1.678185 1.003392 0.000000
v 1.606802 0.991815 0.160155
v 1.437582 0.973786 0.226493
v 1.272585 0.972822 0.160155
v 1.205930 0.988900 -0.000000
v 1.273790 0.999671 -0.160155
v 1.375423 0.396045 -0.000000
v 1.443267 1.069517 -0.002214
v 1.398302 -0.472574 -0.318458
v 1.386116 0.500849 -0.211790
v 1.674094 -0.472574 -0.159229
v 1.609653 0.539751 -0.105895
v 1.674094 -0.472574 0.159229
v 1.609092 0.529804 0.105895
v 1.398302 -0.472574 0.318458
v 1.384248 0.466321 0.211790
v 1.122510 -0.472574 0.159229
v 1.216375 0.437535 0.105895
v 1.122510 -0.472574 -0.159229
v 1.217577 0.461311 -0.105895
v 1.344971 0.003142 -0.298016
v 1.585229 0.121587 -0.165454
v 1.585932 0.121250 0.099669
v 1.344872 -0.005508 0.232231
v 1.136784 -0.078461 0.099669
v 1.137145 -0.070884 -0.165454
vt 0.167801 0.990124
vt 0.201609 0.916842
vt 0.332815 0.914415
vt 0.360730 0.990143
vt 0.423877 0.819916
vt 0.497167 0.853724
vt 0.421440 0.688704
vt 0.497167 0.660783
vt 0.326934 0.597653
vt 0.360735 0.524365
vt 0.195733 0.600096
vt 0.167814 0.524378
vt 0.104688 0.694591
vt 0.031409 0.660790
vt 0.107121 0.825786
vt 0.031401 0.853699
vt 0.170642 0.795047
vt 0.224791 0.850188
vt 0.357220 0.796736
vt 0.357917 0.719448
vt 0.226475 0.663616
vt 0.171340 0.717769
vt 0.302075 0.850891
vt 0.303757 0.664308
vt 0.226034 0.739200
vt 0.224471 0.771527
vt 0.282331 0.719005
vt 0.249999 0.717443
vt 0.302522 0.775308
vt 0.304089 0.742975
vt 0.246222 0.795493
vt 0.278551 0.797061
vt 0.263615 0.757338
vt 0.191966 0.507324
vt 0.090244 0.507324
vt 0.141105 0.384535
vt 0.018315 0.333674
vt 0.090244 0.261745
vt 0.263895 0.333674
vt 0.263895 0.435396
vt 0.018315 0.435396
vt 0.191966 0.261745
vt 0.668456 0.847244
vt 0.668456 0.980890
vt 0.593833 0.980890
vt 0.593833 0.847244
vt 0.519211 0.980890
vt 0.519211 0.847244
vt 0.966947 0.847244
vt 0.966947 0.980890
vt 0.892325 0.980890
vt 0.892325 0.847244
vt 0.817702 0.980890
vt 0.817702 0.847244
vt 0.743079 0.980890
vt 0.743079 0.847244
vt 0.743079 0.713598
vt 0.668456 0.713598
vt 0.817702 0.713598
vt 0.892325 0.713598
vt 0.966947 0.713598
vt 0.593833 0.713598
vt 0.519211 0.713598
vn -0.043300 -0.617100 -0.785700
vn 0.011300 0.354200 -0.935100
vn 0.654800 0.298100 -0.694500
vn 0.528400 -0.636600 -0.561600
vn 0.953500 0.301400 0.001100
vn 0.783400 -0.621500 -0.000500
vn 0.639900 0.310900 0.702700
vn 0.546100 -0.627200 0.555400
vn -0.014200 0.350200 0.936600
vn -0.007100 -0.635500 0.772000
vn -0.625900 0.405700 0.666000
vn -0.596100 -0.602900 0.530200
vn -0.887200 0.460100 0.033100
vn -0.845800 -0.532500 -0.033600
vn -0.626000 0.446200 -0.639600
vn -0.617800 -0.529300 -0.581500
vn -0.453400 0.763800 -0.459300
vn 0.016000 0.710100 -0.703800
vn 0.695500 0.718400 0.005200
vn 0.445900 0.698400 0.559800
vn -0.462400 0.712600 0.527600
vn -0.648000 0.758600 0.067700
vn 0.479400 0.693400 -0.537800
vn -0.042500 0.686700 0.725700
vn -0.483800 0.872000 0.073600
vn -0.333200 0.887400 -0.318300
vn -0.049200 0.830600 0.554700
vn -0.351800 0.836500 0.420100
vn 0.456800 0.889400 0.015600
vn 0.286000 0.863100 0.416200
vn 0.007400 0.869300 -0.494200
vn 0.322100 0.871500 -0.369900
vn -0.023400 0.998700 0.044300
vn 0.003300 -0.999200 -0.038500
vn -0.079200 0.108700 -0.990900
vn 0.001000 0.162900 -0.986600
vn 0.883400 0.020500 -0.468100
vn 0.825500 0.088700 -0.557400
vn 0.887700 -0.046800 0.458000
vn 0.852400 0.061000 0.519200
vn 0.044200 0.025400 0.998700
vn -0.080900 0.119300 0.989500
vn -0.857400 0.127300 0.498600
vn -0.885100 0.109400 0.452400
vn -0.854800 0.187400 -0.484000
vn -0.870000 0.090000 -0.484800
vn -0.875100 0.016200 -0.483600
vn 0.013800 0.041200 -0.999100
vn -0.854200 0.091500 0.511900
vn -0.006800 0.173500 0.984800
vn 0.836700 0.191200 0.513200
vn 0.865100 0.131000 -0.484200
usemtl None
s 1
f 1/1/1 2/2/2 4/3/3 3/4/4
f 3/4/4 4/3/3 6/5/5 5/6/6
f 5/6/6 6/5/5 8/7/7 7/8/8
f 7/8/8 8/7/7 10/9/9 9/10/10
f 9/10/10 10/9/9 12/11/11 11/12/12
f 11/12/12 12/11/11 14/13/13 13/14/14
f 13/14/14 14/13/13 16/15/15 15/16/16
f 15/16/16 16/15/15 2/2/2 1/1/1
f 2/2/2 16/15/15 24/17/17 17/18/18
f 8/7/7 6/5/5 19/19/19 20/20/20
f 14/13/13 12/11/11 22/21/21 23/22/22
f 4/3/3 2/2/2 17/18/18 18/23/23
f 10/9/9 8/7/7 20/20/20 21/24/24
f 16/15/15 14/13/13 23/22/22 24/17/17
f 6/5/5 4/3/3 18/23/23 19/19/19
f 12/11/11 10/9/9 21/24/24 22/21/21
f 24/17/17 23/22/22 31/25/25 32/26/26
f 22/21/21 21/24/24 29/27/27 30/28/28
f 20/20/20 19/19/19 27/29/29 28/30/30
f 18/23/23 17/18/18 25/31/31 26/32/32
f 17/18/18 24/17/17 32/26/26 25/31/31
f 23/22/22 22/21/21 30/28/28 31/25/25
f 21/24/24 20/20/20 28/30/30 29/27/27
f 19/19/19 18/23/23 26/32/32 27/29/29
f 29/27/27 28/30/30 34/33/33
f 25/31/31 34/33/33 26/32/32
f 34/33/33 28/30/30 27/29/29
f 7/34/8 9/35/10 33/36/34
f 13/37/14 15/38/16 33/36/34
f 3/39/4 5/40/6 33/36/34
f 9/35/10 11/41/12 33/36/34
f 15/38/16 1/42/1 33/36/34
f 1/42/1 3/39/4 33/36/34
f 5/40/6 7/34/8 33/36/34
f 11/41/12 13/37/14 33/36/34
f 31/25/25 30/28/28 34/33/33
f 32/26/26 31/25/25 34/33/33
f 47/43/35 36/44/36 38/45/37 48/46/38
f 48/46/38 38/45/37 40/47/39 49/48/40
f 49/49/40 40/50/39 42/51/41 50/52/42
f 50/52/42 42/51/41 44/53/43 51/54/44
f 51/54/44 44/53/43 46/55/45 52/56/46
f 52/56/46 46/55/45 36/44/36 47/43/35
f 30/28/28 29/27/27 34/33/33
f 26/32/32 34/33/33 27/29/29
f 25/31/31 32/26/26 34/33/33
f 45/57/47 52/56/46 47/43/35 35/58/48
f 43/59/49 51/54/44 52/56/46 45/57/47
f 41/60/50 50/52/42 51/54/44 43/59/49
f 39/61/51 49/49/40 50/52/42 41/60/50
f 37/62/52 48/46/38 49/48/40 39/63/51
f 35/58/48 47/43/35 48/46/38 37/62/52
